<svg xmlns="http://www.w3.org/2000/svg" xml:space="preserve" width="1500" height="107" data-id="lg_2TkhTUtgxQz2IIawq8" data-version="1" viewBox="0 0 1500 107"><g data-padding="20"><g transform="translate(10 1.914)scale(.96422)"><rect width="407.755" height="68.93" x="162.696" y="-380.964" fill="none" rx="0" ry="0" transform="translate(476.62 402.46)"/><path fill="#06d6a0" d="M672.554 53.39q0 11.96-5.49 16.59-5.49 4.64-13.54 4.64h-9.64V32.59h8.96q8.85 0 14.28 4.45t5.43 16.35m-5.68 0q0-6.83-1.86-10.46t-4.6-4.82q-2.75-1.19-6.28-1.19h-4.95v33.43h5.01q5.43 0 9.06-3.75 3.62-3.76 3.62-13.21m42.28.24q0 9.82-4 15.74-3.99 5.92-11.44 5.92-7.5 0-11.46-5.8-3.97-5.79-3.97-15.8 0-6.4 1.77-11.34t5.25-7.69q3.47-2.74 8.41-2.74 7.45 0 11.44 5.88 4 5.89 4 15.83m-5.49 0q0-8.6-2.38-12.93t-7.57-4.33q-5.18 0-7.56 4.36t-2.38 12.96q0 8.54 2.41 12.84 2.41 4.31 7.53 4.31 5.19 0 7.57-4.31 2.38-4.3 2.38-12.9m38.67-21.03v28.06q0 6.16-3.38 10.43-3.39 4.27-11.01 4.27-3.12 0-6.07-.98-2.96-.97-5.4-2.86l2.32-3.48q4.57 2.87 9.08 2.87 4.4 0 6.78-2.78 2.37-2.77 2.37-7.72V36.93h-12.44V32.6Zm40.01 21.03q0 9.82-4 15.74-3.99 5.92-11.44 5.92-7.5 0-11.46-5.8-3.97-5.79-3.97-15.8 0-6.4 1.77-11.34t5.25-7.69q3.47-2.74 8.41-2.74 7.45 0 11.44 5.88 4 5.89 4 15.83m-5.49 0q0-8.6-2.38-12.93t-7.57-4.33q-5.18 0-7.56 4.36t-2.38 12.96q0 8.54 2.41 12.84 2.41 4.31 7.53 4.31 5.19 0 7.57-4.31 2.38-4.3 2.38-12.9m41.12 9.34q0 3.66-1.83 6.43-1.83 2.78-5.31 4.33-3.47 1.56-8.23 1.56-4.58 0-8.33-1.37-3.75-1.38-6.43-3.94l3.17-3.6q2.32 2.2 5.15 3.36 2.84 1.16 6.5 1.16 4.15 0 6.95-2.02 2.81-2.01 2.81-5.79 0-2.14-.79-3.54-.8-1.4-2.78-2.5t-5.58-2.14q-6.83-2.01-10.19-4.72-3.35-2.72-3.35-7.41 0-3.12 1.71-5.62 1.7-2.5 4.82-3.87 3.11-1.37 7.07-1.37 4.15 0 7.41 1.22 3.27 1.22 6.01 3.6l-3.17 3.41q-4.33-3.78-10.07-3.78-3.66 0-6.03 1.59-2.38 1.58-2.38 4.63 0 1.83.97 3.11.98 1.28 3.24 2.38 2.25 1.1 6.34 2.26 5.92 1.71 9.12 4.45 3.2 2.75 3.2 8.18m25.68-31.05q3.91 0 6.71 1 2.81 1.01 5.49 3.08l-2.99 3.48q-3.72-3.11-8.84-3.11-5.67 0-9.24 4.12t-3.57 13.08q0 8.91 3.48 13.06 3.47 4.14 9.27 4.14 3.17 0 5.43-.91 2.25-.92 4.33-2.56l2.74 3.41q-4.69 4.58-12.56 4.58-5.19 0-9.34-2.53-4.14-2.53-6.52-7.41t-2.38-11.78q0-6.83 2.41-11.74t6.52-7.41q4.12-2.5 9.06-2.5m47.51 12.5q0 4.52-2.8 7.47-2.81 2.96-7.45 4.12l12.51 18.61h-6.35l-11.52-18h-5.68v18h-5.24V32.59h10.73q7.81 0 11.81 2.99 3.99 2.99 3.99 8.84m-5.61 0q0-4.02-2.32-5.79t-7.26-1.77h-6.1v15.61h6.16q4.7 0 7.11-1.92t2.41-6.13m43.2 9.21q0 9.82-4 15.74-3.99 5.92-11.44 5.92-7.5 0-11.46-5.8-3.97-5.79-3.97-15.8 0-6.4 1.77-11.34t5.25-7.69q3.47-2.74 8.41-2.74 7.45 0 11.44 5.88 4 5.89 4 15.83m-5.49 0q0-8.6-2.38-12.93t-7.57-4.33q-5.18 0-7.56 4.36t-2.38 12.96q0 8.54 2.41 12.84 2.41 4.31 7.53 4.31 5.19 0 7.57-4.31 2.38-4.3 2.38-12.9m16.65 20.99V32.59h5.25v37.33h19.21l-.67 4.7Zm36.6 0V32.59h5.25v37.33h19.21l-.67 4.7Zm61.06-11.65q0 3.66-1.83 6.43-1.83 2.78-5.31 4.33-3.47 1.56-8.23 1.56-4.58 0-8.33-1.37-3.75-1.38-6.43-3.94l3.17-3.6q2.32 2.2 5.15 3.36 2.84 1.16 6.5 1.16 4.15 0 6.95-2.02 2.81-2.01 2.81-5.79 0-2.14-.79-3.54-.8-1.4-2.78-2.5t-5.58-2.14q-6.83-2.01-10.19-4.72-3.35-2.72-3.35-7.41 0-3.12 1.71-5.62 1.7-2.5 4.82-3.87 3.11-1.37 7.07-1.37 4.15 0 7.41 1.22 3.27 1.22 6.01 3.6l-3.17 3.41q-4.33-3.78-10.07-3.78-3.66 0-6.03 1.59-2.38 1.58-2.38 4.63 0 1.83.97 3.11.98 1.28 3.24 2.38 2.25 1.1 6.34 2.26 5.92 1.71 9.12 4.45 3.2 2.75 3.2 8.18"/><path fill="#06d6a0" fill-rule="evenodd" d="M519.966 21.979c-5.97 7.446-15.728 21.08-23.3 38.768a391 391 0 0 1 5.8 4.332L522.072 36.9Zm28.358 69.282a3.956 3.956 0 1 1-7.844-1.022l3.376-25.786h-.784q-.196.854-.382 1.71c-2.324 10.698-3.34 21.698-2.966 32.012a59.2 59.2 0 0 0 16.998.346 59.2 59.2 0 0 0 15.012-3.912l-5.566-30.156h-12.88l4.942 20.912a3.964 3.964 0 0 1-7.72 1.8l-1.06-4.494Zm-15.49-34.744h4.084c2.094-7.466 4.806-14.674 8.118-21.314L532.024 12.74l-5.036 2.334Zm12.34 0h20.844l2.618-18.564q0-.56.154-1.1l3.072-21.78-5.18-2.4-12.348 21.906c-3.758 6.666-6.82 14.12-9.16 21.938m-10.228 7.936h-2.262l-5.54 30.02a24 24 0 0 0 4.592 1.006c-.122-10.1.966-20.694 3.202-30.992Zm-11.248-16.006-17.086 24.56-.006-.006-.118.16a3.96 3.96 0 0 1-5.55.712c-.02-.016-7.26-5.616-11.276-8.41a3.96 3.96 0 0 1-1.534-4.8c11.486-28.424 28.974-47.728 31.266-50.188A3.94 3.94 0 0 1 521 9.12l12.108-5.612q.16-.08.324-.148l.69-.28A40.6 40.6 0 0 1 549.83.099a40.7 40.7 0 0 1 15.666 3.292v.004l.094.042 12.26 5.684a4 4 0 0 1 1.774 1.62c3.094 3.366 19.88 22.356 31.02 49.92h-.002a3.96 3.96 0 0 1-1.426 4.728c-3.606 2.5-9.962 7.388-11.18 8.326q-.168.15-.36.282a3.96 3.96 0 0 1-5.518-.992l-17.02-24.462-1.672 11.868 6.618 35.846h-.002a3.96 3.96 0 0 1-2.216 4.294 67 67 0 0 1-20.184 5.846 67 67 0 0 1-22.428-1.016 3.98 3.98 0 0 1-2.76-1.92c-6.216-.32-11.538-2.916-11.556-2.924v-.002a3.96 3.96 0 0 1-2.17-4.278l6.618-35.846Zm25.774-21.386L539.36 9.6A32.6 32.6 0 0 1 549.768 8a32.6 32.6 0 0 1 9.576 1.546Zm29.4-5-2.104 14.934 19.536 28.08a402 402 0 0 1 5.8-4.33c-7.54-17.62-17.254-31.22-23.23-38.684"/></g><path fill="transparent" stroke="transparent" d="M470.5 0h559v107h-559z"/></g></svg>